<?xml version="1.0" encoding="utf-8"?>
<svg width="600px" height="600px" viewbox="0 0 500 500" version="1.1" xmlns:xlink="http://www.w3.org/1999/xlink" xmlns="http://www.w3.org/2000/svg">
  <defs>
    <path d="M0 0L696.75 0L696.75 81.4653L0 81.4653L0 0Z" id="path_1" />
    <clipPath id="mask_1">
      <use xlink:href="#path_1" />
    </clipPath>
  </defs>
  <g id="icon">
    <path d="M0 0L696.75 0L696.75 81.4653L0 81.4653L0 0Z" id="Background" fill="none" fill-rule="evenodd" stroke="none" />
    <g clip-path="url(#mask_1)">
      <g id="layer1" transform="translate(0.9999924 1.0001256)">
        <path d="M468.428 0.0146449C465.449 0.092953 462.816 0.557797 459.975 2.59027C457.035 4.78283 454.454 8.97509 454.559 13.8172L454.559 33.9597C454.454 38.2999 456.115 41.1079 459.446 43.9318C462.608 46.5127 468.079 46.761 473.777 47.0358L518.223 48.2905C519.393 48.4411 520.233 48.7211 521.261 49.6113C522.024 50.4989 522.367 51.2967 522.317 52.6492L522.317 56.4796C522.368 57.5785 522.296 58.4291 521.525 59.3194C520.561 60.5662 519.396 60.8172 517.959 60.8383L480.117 60.8383C478.944 60.8172 478.252 60.7643 477.343 60.0458C476.593 59.4937 475.877 58.9707 475.758 57.9986L475.758 52.3851L454.559 52.3851L454.559 64.6688C454.588 69.3814 456.242 72.3665 459.711 75.3674C463.855 79.0894 467.976 78.8728 473.513 78.9336L525.883 78.9336C532.155 78.8729 537.388 78.4845 541.205 74.1126C544.578 70.2849 545.532 65.979 545.564 60.3101L545.564 45.9792C545.532 41.2533 544.039 37.4705 540.941 35.0164C537.388 32.0499 532.509 31.5479 526.676 31.186L481.174 28.8746C479.716 28.769 478.749 28.8271 477.608 27.884C476.783 27.1998 476.297 26.4232 476.287 25.3084L476.287 20.6855C476.297 19.1587 476.469 18.4613 477.806 17.3835C479.145 16.303 480.149 16.5038 481.636 16.3929L516.638 16.3929C518.397 16.5039 519.549 16.842 520.798 17.9118C522.056 19.0794 522.79 20.1149 522.779 21.7422L522.779 25.5726L545.299 25.5726L545.299 16.3929C545.384 11.5349 543.144 8.54986 539.422 5.09991C535.097 0.960446 530.821 0.112484 524.827 0.0147669L474.24 0.0147669C472.095 0.051266 470.215 -0.0322301 468.428 0.0147669L468.428 0.0146449ZM0 0.410885L0 21.0817L34.7375 21.0817L34.7375 79.3297L60.5595 79.3297L60.5595 21.0817L96.6178 21.0817L96.6178 0.410885L0 0.410885L0 0.410885ZM418.303 0.873165L418.303 16.4588L438.974 16.4588L438.974 0.873165L418.303 0.873165L418.303 0.873165ZM250.691 1.40149L250.691 79.3297L271.098 79.3297L271.098 45.847C271.058 43.4774 271.713 41.5966 273.673 40.2335C275.295 38.9893 276.574 38.9497 278.494 38.9788L297.91 38.9788C299.789 38.9498 301.223 39.5282 302.533 41.026C303.651 42.5449 303.521 43.8684 303.524 45.5828L303.524 79.3297L324.987 79.3297L324.987 42.8091C325.066 37.1533 323.954 33.4392 320.43 29.0065C315.95 23.8791 311.28 21.8002 304.581 21.8741L286.948 21.8741C282.43 21.8002 278.206 24.0086 275.985 25.7045C274.125 27.1257 272.67 28.3514 271.098 30.5255L271.098 1.40149L250.691 1.40149L250.691 1.40149ZM639.804 8.66601L639.804 21.478L629.898 21.478L629.898 35.8088L639.804 35.8088L639.804 65.6593C639.709 69.4025 639.965 72.1207 642.644 75.1031C645.127 77.935 647.88 78.8675 651.823 78.9335L680.948 78.9335C685.135 78.8676 688.022 77.9772 690.92 75.1031C694.356 71.5502 694.673 68.0579 694.75 63.1498L694.75 52.3851L678.438 52.3851L678.438 57.4703C678.478 58.9523 678.536 60.3312 677.778 61.3007C676.755 62.6135 675.609 62.9305 673.815 62.8856L663.843 62.8856C662.615 62.8988 661.764 63.0362 660.805 62.3573C659.883 61.3218 660.087 60.1885 660.013 58.7911L660.013 35.8088L692.439 35.8088L692.439 21.478L660.013 21.478L660.013 8.66601L639.804 8.66601L639.804 8.66601ZM565.442 21.478C562.818 21.5828 560.669 22.0875 558.045 23.7894C555.602 25.274 553.375 28.8904 553.489 32.9691L553.489 38.3184L572.046 38.3184C571.938 37.3199 572.178 36.6621 573.169 35.7428C574.025 34.9529 575.06 35.0375 575.942 35.0164L600.972 35.0164C601.902 34.9741 602.615 34.879 603.547 35.2805C604.963 36.1523 605.383 37.4783 605.331 39.1109L605.331 46.5075C604.517 45.1127 603.901 44.3968 602.557 43.4036C600.623 41.9665 598.993 41.6416 596.415 41.6865L570.065 41.6865C565.212 41.6416 561.789 41.9639 558.045 44.9886C554.461 48.0106 552.548 50.8768 552.432 55.423L552.432 62.6215C552.548 67.733 554.82 70.7497 558.574 74.1125C563.307 78.6773 567.878 79.5226 574.423 79.4618L589.217 79.4618C592.756 79.5226 594.857 78.7486 598.198 77.4146C600.906 76.358 602.356 75.6025 604.802 73.8484L604.802 78.9335L625.803 78.9335L625.803 36.5353C625.772 32.4883 624.857 29.844 622.171 26.8273C618.523 22.178 614.101 21.404 608.17 21.478L568.282 21.478C567.267 21.4595 566.316 21.4431 565.442 21.478L565.442 21.478ZM111.543 21.8082C107.922 21.8784 104.944 22.3834 101.637 24.6479C97.1831 27.3635 94.9694 31.3127 94.9668 36.6673L94.9668 62.4893C94.9688 67.6246 94.9738 71.4497 98.533 75.2352C102.038 78.701 105.684 79.2663 110.552 79.3297L148.856 79.3297C152.2 79.2663 154.377 78.8304 157.045 76.8201C162.622 72.9951 161.795 67.0276 161.932 60.1778L146.082 60.1778C146.106 61.4036 145.821 62.1697 145.026 62.9516C143.927 64.0505 142.521 64.3754 140.733 64.2724L118.213 64.2724C117.083 64.3173 116.229 64.0188 115.439 63.2158C114.362 62.1168 114.124 61.1077 114.119 59.6495L114.119 54.8285L162.395 54.8285L162.395 39.9694C162.566 32.0128 158.112 27.1495 157.574 26.6951C157.037 26.2408 153.413 21.9772 144.299 21.8741L115.439 21.8741C114.064 21.8505 112.75 21.785 111.543 21.8082L111.543 21.8082ZM186.565 21.8741C182.321 22.0395 179.313 23.0341 175.735 25.9026C169.96 30.5096 168.964 36.2658 169.065 43.7997L169.065 62.2252C168.964 67.4054 171.321 70.6097 175.206 74.2446C179.996 78.6218 184.592 79.261 191.056 79.3297L219.916 79.3297C224.201 79.261 232.089 79.5358 237.285 74.971C240.975 71.4391 243.363 68.4752 243.427 63.4799L243.427 55.8191L221.435 55.8191L221.435 57.6022C221.406 58.9283 221.48 59.9295 220.973 60.7062C220.011 62.1749 217.98 62.381 216.878 62.4893L193.368 62.4893C191.96 62.381 190.948 62.4233 189.801 61.4326C188.642 60.4816 188.526 59.1872 188.481 57.6022L188.481 42.0166C188.526 40.4528 188.89 39.3406 190 38.4504C191.125 37.6235 192.11 37.6975 193.368 37.6579L218.133 37.6579C218.402 37.6738 219.721 37.5523 220.444 38.1862C221.514 38.8942 221.66 39.9402 221.699 41.2902L221.699 44.0639L243.955 44.0639L243.955 37.9221C243.913 33.0615 242.074 29.4662 238.804 26.431C234.556 22.4157 230.551 21.8002 224.803 21.8741L188.481 21.8741C187.821 21.8671 187.172 21.8505 186.565 21.8741L186.565 21.8741ZM336.148 21.8741L336.148 79.3297L356.092 79.3297L356.092 45.847C356.055 43.3744 357.125 41.5649 359.196 40.2335C360.895 39.0607 362.123 38.9523 364.017 38.9788L383.433 38.9788C385.341 38.9523 386.788 39.5203 388.056 41.026C389.189 42.5555 389.213 43.8261 389.311 45.5828L389.311 79.3297L409.982 79.3297L409.982 43.0732C409.942 37.3277 409.374 33.5132 405.953 29.0065C401.65 23.7708 396.829 21.8002 390.103 21.8741L372.471 21.8741C367.988 21.8002 363.183 24.4761 361.442 25.7045C358.89 27.5061 357.897 28.3462 356.092 30.5255L356.092 21.8741L336.148 21.8741L336.148 21.8741ZM418.303 21.8741L418.303 79.3297L438.974 79.3297L438.974 21.8741L418.303 21.8741L418.303 21.8741ZM119.468 36.6673L140.733 36.6673C142.717 36.7836 143.972 36.5405 145.29 37.9221C146.534 39.1346 146.952 40.4739 146.809 42.2808L114.119 42.2808C113.907 40.3233 114.114 38.8123 115.572 37.5258C116.842 36.5907 118.052 36.6884 119.468 36.6673L119.468 36.6673ZM576.207 54.9608L601.236 54.9608C602.443 55.0638 603.429 55.1774 604.34 56.2155C604.971 56.9631 605.36 57.6896 605.331 58.2628L605.331 60.5081C605.402 61.1711 603.751 62.2806 602.293 62.6215C599.958 63.3162 598.581 63.9846 596.151 63.8762L575.414 63.8762C574.352 63.8472 573.665 63.7283 572.905 62.8856C572.429 62.3784 572.323 61.998 572.376 61.1025L572.376 57.7344C572.35 56.7966 572.799 56.0887 573.763 55.6212C574.495 55.2434 575.227 55.0135 576.207 54.9608L576.207 54.9608Z" id="path464" fill="#1B6EB7" fill-rule="evenodd" stroke="none" />
      </g>
    </g>
  </g>
</svg>